<mxfile host="app.diagrams.net" modified="2024-01-16T15:31:14.696Z" agent="Mozilla/5.0 (Windows NT 10.0; Win64; x64) AppleWebKit/537.36 (KHTML, like Gecko) Chrome/120.0.0.0 Safari/537.36" etag="sr6BLdFrR9HaLhEU3V8w" version="22.1.18" type="github">
  <diagram name="Page-1" id="aLXK3hJDCxN5d0xbu3sz">
    <mxGraphModel dx="1687" dy="868" grid="1" gridSize="10" guides="1" tooltips="1" connect="1" arrows="1" fold="1" page="1" pageScale="1" pageWidth="827" pageHeight="1169" math="0" shadow="0">
      <root>
        <mxCell id="0" />
        <mxCell id="1" parent="0" />
        <mxCell id="qeQXUqetGBZ4DKpM_07B-1" value="" style="shape=image;verticalLabelPosition=bottom;labelBackgroundColor=default;verticalAlign=top;aspect=fixed;imageAspect=0;image=data:image/png,iVBORw0KGgoAAAANSUhEUgAAA14AAAJTCAYAAAAYMceYAAAgAElEQVR4Ae3dT6gt13kg+m0jp5MgYUMsYowtPHA66kYBDfznOLYgNhoISxi30yDwU3cE8cA5uTaZxiYkkx6ou8ED+ybuyfNAHXoSkLvfxL7xw/QgErRp3OrwwLnqNOYJ+3ajgEgEcR7GWo/aZ9c+derUPrV31ara36r9E4h9dlWttb71+9YtrU+197mr5B8CBAgQIECAAAECBAgQmEzgL//yL9Nqst51TIAAAQIECBAgQIAAAQJJ4WURECBAgAABAgQIECBAYGIBhdfEwLonQIAAAQIECBAgQICAwssaIECAAAECBAgQIECAwMQCCq+JgXVPgAABAgQIECBAgAABhZc1QIAAAQIECBAgQIAAgYkFFF4TA+ueAAECBAgQIECAAAECCi9rgAABAgQIECBAgAABAhMLKLwmBtY9AQIECBAgQIAAAQIEFF7WAAECBAgQIBBa4EcvPJOe+dP/3YjxR+mFZ87SH7z0d41jh//4oxdupxea3R7ehRYECBDYW0DhtTeVCwkQIECAAIFjCExTeFXF2zPpSj13jMkZkwCBkxFQeJ1Mqk2UAAECBAiUKXBz4fVyeu7hVVqtqn8/tS2kqja/tD7WOP7yc+mTZ2fr47+6eV396h+kkQ/OykQVNQECswsovGYnNyABAgQIECBwiMDVIqousn51/VHDl597OH2qfmz1oxfSM2dVIfWj9Bd3/luqP4i4vebl59LDn/rTdPHpQk+8DsmBawkQGC+g8BpvqAcCBAgQIEBgQoHdT7zuphee+aXN0666INs89aqKsF+qj60uirPqidcfvLQpyBReE6ZM1wQIdAgovDpQHCJAgAABAgTiCOwuvP4ubZ9mXQn35fTcJy8/Qri9RuF1RckbAgTmFVB4zettNAIECBAgQOBAgZsKr5Sa3/FapYvvbFVPsy6fhH3q/PziSde1wqu65vJ7YQeG5XICBAgcJKDwOojLxQQIECBAgAABAgQIEDhcQOF1uJkWBAgQIECAAAECBAgQOEhA4XUQl4sJECBAgAABAgQIECBwuIDC63AzLQgQIECAAAECBAgQIHCQgMLrIC4XEyBAgAABAgQIECBA4HABhdfhZloQIECAAAECmQRWq8u/ayvyz5mmqxsCBE5YQOF1wsk3dQIECBAgcGyByMVWM7ZjOxmfAIHyBRRe5efQDAgQIECAQLECdXETdQLR44vqJi4CBK4LKLyumzhCgAABAgQIzCQQvbCJHt9MaTIMAQIZBBReGRB1QYAAAQIECAwTiF7YRI9vmLpWBAgcQ0DhdQx1YxIgQIAAAQJrgeiFTfT4LCMCBMoRUHiVkyuREiBAgACBxQlEL2yix7e4BWFCBBYsoPBacHJNjQABAgQIRBeIXthEjy96fsVHgMClgMLr0sJPBAgQIECAwIQCdRHT9TrhsKO67oq1PjaqY40JEDg5AYXXyaXchAkQIECAwHEE6oKl6/U4EfWP2hVrfay/tSsIECBwKaDwurTwEwECBAgQIDCzQPQiJnp8M6fLcAQIjBBQeI3A05QAAQIECBAYJxC9sIke3zh9rQkQmFNA4TWntrEIECBAgACBKwLRC5vo8V3B9IYAgdACCq/Q6REcAQIECBBYtkD0wiZ6fMteHWZHYFkCCq9l5dNsCBAgQIBAUQLRC5vo8RWVbMESOHEBhdeJLwDTJ0CAAAECxxSIXthEj++YuTM2AQKHCSi8DvNyNQECBAgQIJBRoC5sor9mnLKuCBA4UQGF14km3rQJECBAgEAEgegFVx1fBCsxECBQtoDCq+z8iZ4AAQIECBAgQIAAgQIEFF4FJEmIBAgQIECAAAECBAiULaDwKjt/oidAgAABAgQIECBAoAABhVcBSRIiAQIECBAgQIAAAQJlCyi8ys6f6AkQIECAAAECBAgQKEBA4VVAkoRIgAABAgQIECBAgEDZAgqvsvMnegIECBAgQIAAAQIEChBQeBWQJCESIECAAAECBAgQIFC2gMKr7PyJngABAgQIECBAgACBAgQUXgUkSYgECBAgQIAAAQIECJQtoPAqO3+iJ0CAAAECBAgQIECgAAGFVwFJEiIBAgQIECBAgAABAmULKLzKzp/oCRAgQIAAAQIECBAoQEDhVUCShEiAAAECBAgQIECAQNkCCq+y8yd6AgQIECBAgAABAgQKEFB4FZAkIRIgQIAAAQIECBAgULaAwqvs/ImeAAECBAgQIECAAIECBBReBSRJiAQIECBAgAABAgQIlC2g8Co7f6InQIAAAQIECBAgQKAAAYVXAUkSIgECBAgQIECAAAECZQsovMrOn+gJECBAgAABAgQIEChAQOFVQJKESIAAAQIECBAgQIBA2QIKr7LzJ3oCBAgQIECAAAECBAoQUHgVkCQhEiBAgAABAgQIECBQtoDCq+z8iZ4AAQIEShT4uxfTl//xKq1WzX//afo3/73EyYh5eoG/Sd/5wkOt9bJKH/36X08/tBEIEMgmoPDKRqkjAgQIECCwp0BVeD35b5I6a0+vk7+sKrx+M6mzTn4hAChcQOFVeAKFT4AAAQIFCtxQeN17/rPp7Owfp9WqegJ2Lz3/5OVTsQf/5X9MPy5wukIeK3BD4fXXX0+/eXaWHlqt0kfPz9NHP/r1dPEcrGpzlr7wnb8ZO7j2BAhkElB4ZYLUDQECBAgQ2Fug66OG//TiCdi9559M/7T+zOG9O+lO/VisanP2L9N/VHntzbycC7s+avjRiydgf/31RrH11+nrH+06vhwJMyFQsoDCq+TsiZ0AAQIEyhToeeL1LxvVVVWIbb8L9qDCq8yEj42654nXF76T6udaf/OdL6Tf/Ppfp7/++kd9B2wsu/YEMgsovDKD6o4AAQIECPQK7Fl4/d2LX05P1k+/PPHqZV3uBfsXXulvvpO+8Jvn6bx+8rVcFDMjUJyAwqu4lAmYAAECpyvwDy8/lx698psAV+kXn3w+/bA0kqqIuvZbDR9M1ZOu6jte2yde955PT9bzffDJdP7ZJ/3mw9JynSXero8artJD1ZOu6jtejSdeKV1cuz6XZeycnXTNY/PRyJzD6ItAUAGFV9DECIsAAQIErgtUhdfHv/xi48Qb6ZvPPJiuHGqc9SMBApEErj+5qz4aeXalcIwUr1gI5BVQeOX11BsBAgQITChwU+FVnTs7O0uPrn4xPfn83fTyc482vhv15dQs1yYMUdcECOwUuKHw8tsZd6o5sRwBhddycmkmBAgQWLxA10cNH9w87loXXvXHDv/h/0l3vlt/ANFTscUvDBMsRKDjo4YPfSGtf+O9385YSA6FOUZA4TVGT1sCBAgQmFXgyhOvN76Znnnw8knWlXMppatFmo8jzpoogxHoFLj+xGt7Weu7an4741bGDwsSUHgtKJmmQoAAgaULdBVXZ5unXFfOvfHN9Nv106/kidfS14X5lSKwf+HltzOWklNxHiKg8DpEy7UECBAgcFSBK8XVOpJ/WH+Xq/q44ZVz//Byeu7R1eY7Xg+m8/PfTk8+X3/08KhTuDZ4/Xd0XTuxOdB3flc7x5cp0Lce+s4fV+WAwiv0b2c8rqLRyxVQeJWbO5ETIECAwAIE+jbKfecXQGAKBwj0rYe+8wcM5VICBDILKLwyg+qOAAECBAgcItC3Ue47f8hYri1foG899J0vX8AMCJQroPAqN3ciJ0CAAIEFCPRtlPvOL4DAFA4Q6FsPfecPGMqlBAhkFlB4ZQbVHQECBAgQOESgb6Pcd/6QsVxbvkDfeug7X76AGRAoV0DhVW7uRE6AAAECCxDo2yj3nV8AgSkcINC3HvrOHzCUSwkQyCyg8MoMqjsCBAgQ2E+g3iBGf91vNsOvque/q4e+87vaTX381q1b6ezsLL3wwgsHDxV1TgdP5AgN+uz6zucKuR4n+muu+db9WPe1hNchAgqvIWraECBAgMBogegbtjq+0RPt6aBvnL7zPd1PdrqOq3r92Mc+lr773e/uPVbddu8GLtwK9Nn1nd92NPKHepzoryOnea15c77W/TUeB3oEFF49QE4TIECAwDQC9QZmmt7H9zpXfH3j9J0fP9NhPdRxvfOd79z8fWmr9NRTT6Xvf//7vR3WbXsvdME1gT67vvPXOhx4YK5xBoa3XZND2+9qV8/but8l5PhNAgqvm3ScI0CAAIHJBOoNzGQDjOx4rvj6xuk7P3Kag5vXcb3++uvpD//wD9P999+/3ew+++yz6ZVXXtnZd9125wVO7BTos+s7v7PjA0/MNc6BYW0vnyq+ul/rfkvthwMEFF4HYLmUAAECBPIJ1BuYfD3m7Wmu+PrG6Tufd9b799aO6+WXX06///u/n973vvetC7AHH3wwffGLX0wvvvjitU7bba9d4MBOgT67vvM7Oz7wxFzjHBjW9vKp4mv3a91vyf2wh4DCaw8klxAgQIBAfoH2Bib/CON6nCu+vnH6zo+b5fDWu+KqCq2q4KoKr+qaqhCrCrJqg1r/s6ttfd7rboE+u77zu3s+7Mxc4xwW1eXVU8W3q1/r/tLeT7sFFF67bZwhQIAAgQkFdm1gJhzyoK7niq9vnL7zB00q48V9cVXf9aq+81VfV30n5itf+Ur6yU9+sj2WMZyT6ar23DXhvvO72h16fK5xDo2rvn6q+Pr6te7rDHjtElB4dak4RoAAAQKTC/RtYCYPoGeAueLrG6fvfM80Jju9b1zVbzusfvtbfX39UcTqvX8OF6gdd7XsO7+r3aHH5xrn0Ljq66eKb99+rfs6E16bAgqvpoafCRAgQGASgXqz0vU6yYAZOu2Kdcpju0Kecsyl9L3L7tjHp/TdNbcpx+zqe1ccxz7eFevSjh3b2PiHCyi8DjfTggABAgQOFLhpw3NgV7NdflPMU5zbNbEpxlpan7vsjn18Suddc5tyzK6+d8Vx7ONdsS7t2LGNjX+4gMLrcDMtCBAgQOBAgXrD02zWdax5/tg/zxVf3zh954/ltG9c1a+Vf+aZZ7YfNXzHO96x/Xls7PvGMHacoe2niK+vz77zQ+fSbjfXOO1x930/VXz79nvK637fHJ3idQqvU8y6ORMgQGBmga7NStexmcO6cbi54usbp+/8jZOY8GRfXPfu3Uu3bt1K991337rQ+vmf//n0e7/3e6k63td237Bz9bPveIdeN0V8fX32nT90Druun2ucXeP3HZ8qvr5+rfu+zJz2eYXXaeff7AkQIDCLQNdmpevYLMHsOchc8fWN03d+z+lkv2xXXHP+Wu1dMWSf7MAOp4ivr8++8wOncq3ZXONcG3jPA1PFt6tf637PxJz4ZQqvE18Apk+AAIE5BLo2K13H5ohl3zHmiq9vnL7z+84n93XtuI7xF8m2Y8g9x7H9TRFfX59958fOqW4/1zj1eIe+ThVfu1/r/tDMnPb1Cq/Tzr/ZEyBAYBaB9malGrTr2CzB7DnIXPH1jdN3fs/pZL+sjuunP/1p+sY3vpHe8573bHP6G7/xG6n6ddq7/qnb7jq/7/Fc/ew73qHXTRFfX5995w+dw67r5xpn1/h9x6eKr+7Xuu/LgPNdAgqvLhXHCBAgQCCrQL1ZaXbadax5/tg/zxVf3zh954/lVMf18MMPbwuuRx99NL3wwgu9IdVtey/suSBXPz3DDD49RXx9ffadHzyZVsO5xmkNu/fbqeKr+7Xu906FCxsCCq8Ghh8JECBAYBqBerPS7L0+Fv21GfMUP9fz39V33/ld7aY+XsdVvb7//e9fP/WqngLs80/ddp9rb7omVz83jTHm3BTx9fXZd37MfJpt63GivzZjzvFzc77WfQ7R0+pD4XVa+TZbAgQIHEWg3qw0B6+PRX9txjzFz/X8d/Xdd35Xu6mPV78ivvq//l/5ylfST37yk4OGyzWnXP0cFPwBF08RX1+ffecPCP/GS+txor/eOIkBJ637AWiabAUUXlsKPxAgQIDAVAL15myq/kvut8+m73zJcx8be3SbKeLr67Pv/Fhz7Y8vIMfHz8HQCBReQ+W0I0CAAIG9BWwUdlP12fSd393z8s9Et5kivr4++84vf1Usf4ZyXG6OFV7l5k7kBAgQKEbARmF3qvps+s7v7nn5Z6LbTBFfX59955e/KpY/QzkuN8cKr3JzJ3ICBAgUI2CjsDtVfTZ953f3vPwz0W2miK+vz77zy18Vy5+hHJebY4VXubkTOQECBIoRsFHYnao+m77zu3te/pnoNlPE19dn3/nlr4rlz1COy82xwqvc3ImcAAECxQjYKOxOVZ9N3/ndPS//THSbKeLr67Pv/PJXxfJnKMfl5ljhVW7uRE6AAIFiBGwUiklVUYFGX1fR4ysq2YLdClhXW4riflB4FZcyARMgQKA8ARuF8nJWQsTR11X0+ErIsRivC1hX101KOaLwKiVT4iRAgEDBAjYKBScvcOjR11X0+AKnVmg3CFhXN+AEP6XwCp4g4REgQGAJAjYKS8hivDlEX1fR44uXURHtI2Bd7aMU8xqFV8y8iIoAAQKLErBRWFQ6w0wm+rqKHl+YRArkIAHr6iCuUBcrvEKlQzAECBBYpoCNwjLzeuxZRV9X0eM7dv6MP0zAuhrmFqGVwitCFsRAgACBhQvYKCw8wUeaXvR1FT2+I6XNsCMFrKuRgEdsrvA6Ir6hCRAgcCoCNgqnkul55xl9XUWPb95sGS2XgHWVS3L+fhRe85sbkQABAicnYKNwcimfZcLR11X0+GZJkkGyC1hX2Uln61DhNRu1gQgQIHC6AjYKp5v7KWcefV1Fj2/K3Oh7OgHrajrbqXtWeE0trH8CBAgQSDYKFsEUAtHXVfT4psiJPqcXsK6mN55qBIXXVLL6JUCAAIGtgI3ClsIPGQWir6vo8WVMha5mFLCuZsTOPJTCKzOo7ggQIEDguoCNwnUTR8YLRF9X0eMbnwE9HEPAujqGep4xFV55HPVCgAABAjcI2CjcgOPUYIHo6yp6fIPhNTyqgHV1VP5Rgyu8RvFpfKjA63/2bPpn/+H/3d3s7/9r+le/tkqrB/5Zuumyiw5eT3/27D7XXR3u9T97Or3nj/5L+2B6+j1/lFpHr14z5F09n9Vq/R2XB/7Zf0g3zH7ICNoQKELARqGINBUXZPR1FT2+4hIu4LWAdVXuQlB4lZu7IiPvLbxe/7P07NTFSVUMPX61yOqNa4j2uuh6T7qs8f4+/dd/9WvXi74hfWtDoDABG4XCElZIuNHXVfT4CkmzMFsC1lULpKC3Cq+CkrWEULcFTlWUnJ2ls+rpVvU0qHra1Hg6tH4y9Pqfpac3T4rW5yuAqjA7O0u/tlql9/zRncsnXs1r66dljTGuPmmqCqCzxpO3yydnf/9f/9W67yqmuk117GwzZnW8flrWvHa1ahZYF5mqzj9+WXW10vd6+rOnN3PfjlUdu+xnPW5VhDbntnqgEXerS28JBBawUQicnIJDi76uosdXcOpPOnTrqtz0K7zKzV2RkV8pvH6tLjIaBcf2iVfjWErpShGy/UhgXTBV114WJNtr14VX90cRt9c0+25dX38ksbr21+oxqyJo/fPfp7+885+3Hxusr20mZTvX5sH659fvpDv15xob4172czn/1+/c2X4Eshl33ZVXAiUI2CiUkKXyYoy+rqLHV17GRVwJWFflrgOFV7m5KzLybTFSFRvbj/tVT6Aev/hIXl14Vefrp2HNp171+fXsG4VX87tedXF0ZYw2V9228fTrypOly+9k3W0+uWr22YqxfhJWj1QVSdeeeP39X6Y7//niW15VkVXfPLffaav7r+dQz/Pa07F6FK8EyhCo13oZ0YqyFIHo6yp6fKXkWZxXBayrqx4lvVN4lZStBcS6d+GVLp/4XJn2rsJr1xOvbXF3pZf1m3Us/+f/dVkAVkXP2fUnZFcKqLowquJrFHuXT6oa46wLs/qpXnX84jte1UcYrxVz23EvitDz8/oXgDSK0ubTucYwfiRQgoCNQglZKi/G6OsqenzlZVzElYB1Ve46UHiVm7siI9+/8Lr4Ptf2O17196A6C6/Wtc3veN1QeFXfF6v6bz6pWn+ssH7CtjnXXXhdFFH1ze895+fdvxRkXXy1v8vVjvfxdP7s5onfprj6tXoO60svn4w98Ph5evamORW5KgR9CgL1n5VTmKs5zicQfV1Fj2++TBkpp4B1lVNz3r4UXvN6G40AAQInKWCjcJJpn3zS0ddV9PgmT5ABJhGwriZhnaVThdcszAYhQIDAaQvYKJx2/qeaffR1FT2+qfKi32kFrKtpfafsXeE1pa6+CRAgQGAtYKNgIUwhEH1dRY9vipzoc3oB62p646lGUHhNJatfAgQIENgK2ChsKfyQUSD6uooeX8ZU6GpGAetqRuzMQym8MoPqjgABAgSuC9goXDdxZLxA9HUVPb7xGdDDMQSsq2Oo5xlT4ZXHUS9HEqhvPtFfj8RjWAJhBOo/o2ECEsgiBKKvq+jxLWIRnOAkrKtyk67wKjd3Im/8XRb1TSjqq2QROHWB+s/mqTuYf16B6Osqenx5s6G3uQSsq7mk84+j8MpvqscZBaLffKLHN2OqDHXiAv4snPgCmGj60ddV9PgmSotuJxawriYGnrB7hdeEuLqeXiD6zSd6fNNnyAgELgT8WbASphCIvq6ixzdFTvQ5vYB1Nb3xVCMovKaS1e8sAtFvPtHjmyVJBiHQ+FgwDAI5BaLfY6PHlzMX+ppPwLqazzr3SAqv3KL6m1Ug+s0nenyzJstgJy3gz8JJp3+yyUdfV9HjmywxOp5UwLqalHfSzhVek/LqfGqB6Def6PFNnR/9E6gF/FmoJbzmFIi+rqLHlzMX+ppPwLqazzr3SAqv3KL6m1Ug+s0nenyzJstgJy3gz8JJp3+yyUdfV9HjmywxOp5UwLqalHfSzhVek/LqPKdAfaPpes05Ts6+umKtj+UcR18EogtY99EzVGZ80ddV9PjKzLqoraty14DCq9zcnVzk9Y2m6zUqRles9bGoMYuLwBQC1v0UqvqMvq6ix2cFlSlgXZWZtypqhVe5uRN5Ab8pzc3RMiVwIeDPgpUwhUD0dRU9vilyos/pBayr6Y2nGkHhNZWsfmcRiH7ziR7fLEkyCIEC/ieJJJUpEP0eGz2+MrMuauuq3DWg8Co3dyIvYDPn5miZErgQ8GfBSphCIPq6ih7fFDnR5/QC1tX0xlONoPCaSla/swhEv/lEj2+WJBmEQAH/k0SSyhSIfo+NHl+ZWRe1dVXuGlB4lZs7kRewmXNztEwJXAj4s2AlTCEQfV1Fj2+KnOhzegHranrjqUZQeE0lq99ZBKLffKLHN0uSDEKggP9JIkllCkS/x0aPr8ysi9q6KncNKLzKzZ3IG5u5+iYU9VWyCJy6QP1n89QdzD+vQPR1FT2+vNnQ21wC1tVc0vnHUXjlN9XjjAL1zSf664wkhiIQUqD+MxoyOEEVKxB9XUWPr9jEn3jg1lW5C0DhVW7uRE6AAIFiBGwUiklVUYFGX1fR4ysq2YLdClhXW4riflB4FZcyARMgQKA8ARuF8nJWQsTR11X0+ErIsRivC1hX101KOaLwKiVT4iRAgEDBAjYKBScvcOjR11X0+AKnVmg3CFhXN+AEP6XwCp4g4REgQGAJAjYKS8hivDlEX1fR44uXURHtI2Bd7aMU8xqFV8y8iIoAAQKLErBRWFQ6w0wm+rqKHl+YRArkIAHr6iCuUBcrvEKlQzAECBBYpoCNwjLzeuxZRV9X0eM7dv6MP0zAuhrmFqGVwitCFsRAgACBhQvYKCw8wUeaXvR1FT2+I6XNsCMFrKuRgEdsrvA6Ir6hCRAgcCoCNgqnkul55xl9XUWPb95sGS2XgHWVS3L+fhRe85sbkQABAicnYKNwcimfZcLR11X0+GZJkkGyC1hX2Uln61DhNRu1gQgQIHC6AjYKp5v7KWcefV1Fj2/K3Oh7OgHrajrbqXtWeE0trP9gAj9Mzz/5i6m+aV28Ppqee/n/CxancAgcV6D+M5Iritz95YpLP2ULRF9X0eMrO/unG711VW7uFV7l5k7kgwSqwuu30zffaDR+8UvpwWe+mZqHGmf9SOAkBXL/hz13fyeZFJO+JhB9XUWP7xqoA0UIWFdFpKkzSIVXJ4uDyxW4ufB68UsPXj4Nq4qxHz6fnjx7LtUPxKrzz1yp2pYrZWanLZD7P+y5+zvt7Jh9LRB9XUWPr3b0WpaAdVVWvprRKryaGn4+AYGujxo+s3kC9mL60scvi6wLjOr6s4uPIraKsBPAMsUTFsj9H/bc/Z1waky9IRB9XUWPr0Hpx4IErKuCktUKVeHVAjnO2zvpfLW6fNJS/3x+5zjhLHrUq0+82k+wfvj8k+kXa//644cvfil9/LmX093nn0xnz72cfBts0QvE5DYCuf/Dnrs/iSJQCURfV9Hjs4rKFLCuysxbFbXCK0TuLgqvq3XW3XT7bJWuHgsRbOFBXC28Umo80boys+bx6knYb6fzj2+efF25zhsCyxTI/R/23P0tU92sDhWIvq6ix3eot+tjCFhXMfIwJAqF1xC17G26Cq+U7pyv0tntuyndvZ3OVufp9u2zzf/dO0u37zaekjWqs6pN/QdytTm+7WcT992qn0ab7NMJ3WG78EopVR8h/MXq44Yvpi892PCrn3illNbf/Wq8Dz1FwRHIIFDfRzJ0te4id3+54tJP2QLR11X0+MrO/ulGb12Vm3uFV4jcdRVejWPrwmtThKWLgmy1qoqvtCnKNj/fOU+rs9upOpxS9cRs13FP0kKkXRAEAgvk/g977v4C0wltRoHo6yp6fDOmylAZBayrjJgzd6Xwmhm8e7jG06v6+0Wry0Lr4onXpoha11rNJ1ZV264CqzHSunDbXLN5eubbYw0fPxIgcE0g93/Yc/d3LWAHTlIg+rqKHt9JLpoFTNq6KjeJCq8QuWs83eqKp1UsXf2oYKPwqouyTfG2/pjiur/L74tdbds1mGMECBDI/0sLbCQkqxAAACAASURBVBSsqikEoq+r6PFNkRN9Ti9gXU1vPNUICq+pZA/qN1/hdTnsZbFVHasLrur7Xif79a5LHD8RINAjkPs/7Ln76wnf6RMRyL2uovd3Imk1zR6B3Ou0ZzinMwoovDJiDu8qT+FVF1cXcTS+41Ud2HxPbLU6Tz5mODxTWhI4FYHc/2HP3d+p5ME8bxbIva6i93ezhrOnIpB7nZ6KW4R5KrwiZCHlKbwufqHG5W/lu/yoYTXJiydgS/tthvXNJ/priGUmCAIHCNR/pg5ocuOlufu7cTAnT0Yg97qK3t/JJNZEbxTIvU5vHMzJrAIKr6ycOptboL75RH+d28V4BMYK1H+mxvZTt8/dX92v19MWyL2uovd32tk2+1og9zqt+/U6vYDCa3pjI0woEP3mEz2+CVOj68IFcq/d3P0Vziv8TAK511X0/jKx6aZwgdzrtHCOosJXeBWVLsG2BaLffKLH1/b0nkAtkHvt5u6vjtPraQvkXlfR+zvtbJt9LZB7ndb9ep1eQOE1vbERJhSIfvOJHt+EqdF14QK5127u/grnFX4mgdzrKnp/mdh0U7hA7nUam+Pi9yDUc96+FvoruhVesVdbZ3RvvPFGevbZZ9NDDz2U3vve96ann3463bt3r/PapR+s/wBGnWf0+KK6iet4AvX9pV67ue4vdX/Hm5mRlyiQa11Z90tcHcudU651fyyh6s/brVu30iOPPLL+93Of+9wN+9iuX0B39a9MOtY8hoyr8BqidsQ21WJ997vfneo/dPXr29/+9vTqq68eMbLjDF3P/zij948aPb7+GbjilASmvL/4s3BKK2m+ueZYV9b9fPkyUh6BHOs+TySH91L9eXv44Yev7WPf9a537djHdhVeKVV/L+36t3ev/7qk83T79tmmz7N0++5lXNV1tVeEv1JJ4XWZmyJ+qp50XS6g5mJapU984hNFzCFnkLVFzj5z9hU9vpxz1Vf5AlPeX/xZKH99RJxBjnVl3UfMrJhuEsix7m/qf8pz1ZOuKv4PfOAD6aWXXkrf+9730hNPPLE+9ulPf7pj6K7Cq3Gs/ntqNx89XP+dtme3U1V7NX+u/1qlq3/VUsdwEx9SeE0MnLv76uOF9R84r5eFZ27nXP3J0WWOWLCo1oB/COQUKOW+knPO+iJQyrq/Kc6q6KrPV5/Yqn5+xzve0ZHciyKrvrZ+3RZQ68Kr+ZSrur75/rLL7VOyy0Oz/6Twmp183IC//Mu/vF2o9eLzGnczJzeKDWvg6hoYdwfUmsBVgVL+fF2N2jsC4wRKWfc3xbkuQFYX/3147bXX1nvb+++/vwOm8XSr42zafNTwzvZcs/C6XrRtC7bt9fP+oPCa13v0aJ/5zGd2Fl4f/OAHR/dfWgf1H+qocUePL6qbuI4j4P5yHHejHlfAuj+uv9FPS6D+aG/98cJqn1Qfe/zxxzsw9im8Gk+4Gk/A1t/vavz2Q0+8Ongdulmg+u2FDzzwwLXi621ve1uqquhT+yd6YRM9vlNbL+Z7s4D7y80+zi5TwLpfZl7NKqZA9eet+kUa9f6ofq2ednXvY/cpvDa/aKP1va4rhdfmu2CeeMVcF6Gjqj4L+9hjj20XbfWkq3uxhp5GluDqP7BZOpugk+jxTTBlXRYuUN9f/tE/+kfp537u59Ip318KT6XwDxCw7g/AcimBkQLVn7ennnpqu4+tnnTt3sfuU3idp/Ptby88T9uPHW6KrfVe7Ox2ulP95sPGE7CR0xjUvJpn3C/IDJrS6TSyqU/bP7RRsy5HUTMjLgIECBAgQGBKgXoPNPb1xhivfcfrxquPflLhdfQUDA+gXsjDeyi/ZXSD6PGVvwLMgAABAgQIEIgoUO+Bxr7eODeF1408TmYUqBdyxi6L6yq6QfT4iku4gAkQIECAAIEiBMbugca2j4jkiVfErOwZ0xIX5J5T315WG0R/3QbsBwJBBN789vn2o7qXf37ekn53++H4IIEKg0BWgeu/Xnq9/o/8vY+sU9QZgSAC9X9bhoYztv3Qcadsp/CaUnfivpe4IA8lqw2ivx46L9cTmFpgXXi95Xcvv4RcDXj3a+msfWzqQPRPYFaBri/q3023z1ZJ7TVrIgx2AgL13mzoVMe2HzrulO0UXlPqTtz3EhfkxGS6J0BgI9BZeL357XS++kj647tVDXaWVmdn6Wy1Sm9ZPwZ7M317+1ujVmmlQLOWihToKrxS2v79Puvvi5yls7PqL3a9+E1pzV8/fTfAb0Urkl3QJykwdp86tn1EdIVXxKzsGdMSF+SeU3cZAQIjBboKr+axdeHVKK7W7z/yx+nuety76Wtnq/SRqkLzD4GiBLoKr8axza+f3j79unOeVme3t+vek7Giki3YIwuM3aeObX/k6XcOr/DqZCnj4BIXZBnyoiRQvsC6yFpV/1e/+e/F065qdlcLrfZ8L55+KbzaLt7HF7gosq6u+8u/fDVtnnjdrv+fQvP9+ufG3xEUf7IiJHBUgfrP2dAgxrYfOu6U7RReU+pO3PcSF+TEZLonQGAj0Hy61YVSFV4XHzHcNkjnV4o0T7y63ByLLtB4utUV6rXi6vL7Xz5m2AXmGIHdAmP3qWPb747seGcUXsezHz3yEhfkaBQdECCwl8BhhdfFE67LQswTr72QXRRQ4NDCK6W64Kq+B7b9CGLAmQmJQDSBsfvUse2jeVTxKLwiZmXPmJa4IPecussIEBgpMKrwqn774coTr5Ep0PwoAocXXhcfP7z4ZRv+toWjJM2ghQqM3aeObR+RTeEVMSt7xrTEBbnn1F1GgMBIgcMKr82vmq8/aviR2+nb7Y8ijoxHcwLzCAwovNLFxw1XHnfNkyKjLEZg7D51bPuIkAqviFnZM6YlLsg9p+4yAgQIECBAgACBwAJj96lj20ekUXhFzMqeMS1xQe45dZcRIECAAAECBAgEFhi7Tx3bPiKNwitiVvaMaYkLcs+pu4wAAQIECBAgQCCwwNh96tj2EWkUXhGzsmdMS1yQe07dZQQIECBAgAABAoEFxu5Tx7aPSKPwipiVPWNa4oLcc+ouI0CAAAECBAgQCCwwdp86tn1EGoVXxKzsGdMSF+SeU3cZAQIECBAgQIDAKIE30w+++qFU7ycvXt+aPvb1V0b1Wjeu+63fH/o6tv2h481xvcJrDuWJxljigpyISrcECBAgQIAAAQJXBKrC69fTF7/TOPizb6XP3/fF1DzUOHvQj2P3qWPbHxTsTBcrvGaCnmKYJS7IKZz0SYAAAQIECBAg0Ba4qfC6OHd+/vnNE7H7NgVa6ynZDUXa2H3q2Pbt2UZ4r/CKkIWBMSxxQQ6k0IwAAQIECBAgQOAggVYRtVql1epqgXXf5nHYmz/4ajr72NfTK2/+Vbrz5/VHEX+WvvX5+vrrA4/dp45tfz2i4x9ReB0/B4MjWOKCHIyhIQECBAgQIECAwAECV594/exbn091oZXS1XPpzR+kr/76xUcQqyLsQ+sirVmoXR927D51bPvrER3/iMLr+DkYHMESF+RgDA0JECBAgAABAgQOEGgVV+ti62zzyzUunobVhdj2idfPvpV+p3rytR7FE68DsNeXKrwOFQt0vcIrUDKEQoAAAQIECBAoSqBdeKW0frL1oerjgxfntt/xeuvH0vqXHVZPvj5UPem6eNp1fv47O38L4th96tj2EVOh8IqYlT1jWuKC3HPqLiNAgAABAgQIEJhMoKMoO3CssfvUse0PDHeWyxVeszBPM8gSF+Q0UnolQIAAAQIECBDYX0Dhtb/V/lcqvPa3CnelwitcSgREgAABAgQIECCQ0vYvZh6KscR9rsJr6GoI0G6JCzIAqxAIECBAgAABAgRGCozdp45tPzL8SZorvCZhnafTJS7IeeSMQoAAAQIECBAgMKXA2H3q2PZTzm1o3wqvoXIB2i1xQQZgFQIBAgQIECBAgMBIgbH71LHtR4Y/SXOF1ySs83S6xAU5j5xRCBAgQIAAAQIEphQYu08d237KuQ3tW+E1VC5AuyUuyACsQiBAgAABAgQIEBgpMHafOrb9yPAnaa7wmoR1nk6XuCDnkTMKAQIECBAgQIDAlAJj96lj2085t6F9K7yGygVot8QFGYBVCAQIECBAgAABAiMFxu5Tx7YfGf4kzRVek7DO0+kSF+Q8ckYhQIAAAQIECBCYUmDsPnVs+ynnNrRvhddQuQDtlrggA7AKgQABAgQIECBAYKTA2H3q2PYjw5+kucJrEtZ5Ol3igpxHzigECBAgQIAAAQJTCozdp45tP+Xchvat8BoqF6DdEhdkAFYhECBAgAABAgQIjBQYu08d235k+JM0V3hNwjpPp0tckPPIGYUAAQIECBAgQGBKgbH71LHtp5zb0L4VXkPlArRb4oIMwCoEAgQIECBAgACBkQJj96lj248Mf5LmCq9JWOfpdIkLch45oxAgQIAAAQIECEwpUO9Tx75OGePcfSu85hbPOF69kDN2qSsCBAgQIECAAAECKaU307d/Z5Xq/eb29a230p9XPm/+Vfrah9+abq3fXAfbXr/q6OOAY9d7LveIwqvc3G3/IBQ8BaETIECAAAECBAiEFLgovN56pbJ6M/3V1z6c1sd6Cq9dU3rjjTfSrVu3tvvYz33uc+nevXu7Ll/UcYVXwems/09CwVMQOgECBAgQIECAQEiBrsIrpTe//TvpLb/+x+mVduH15rfT79RPsuqnYq15VUXXww8/vC266r3su971rvTqq6+2rl7eW4VXwTmtF2vBUxA6AQIECBAgQIBASIGuwqtxrFl4NX9OjadirXnVT7o+8IEPbIuvJ554Yv3zpz/96dbVy3tbROFVFxheuz8ju7xlaUYECBAgQIAAAQLHFbgostr77/XTriqwRrH15l99LX14x1Ou5hweeeSRdZH10ksvbQuv6klXe4wS3zfnuetnhVf9SLTg113JdZwAAQIECBAgQIDAMIHG062uDpqF17d/J632KLze//73r4usdQGy2Xu/9tprCq8u32Mdq6veY41vXAIECBAgQIAAAQKnJXBA4bXnE69nn312XWRVHy+sfqFGVXTVxx5//PEieQ+pU4p64lVkNgRNgAABAgQIECBAoDiB/QuvtP7FGvWvlr/4jtf2I4mNeVfFVvWLNOpipX69//77U1WUlPhPPYd9Yld47aPkGgIECBAgQIAAAQInJXBA4bX+ytfX0ofrr+7c8LHD6jtdTz31VKqKrerf6klXqUVXtRyKK7zqgMe+ntSfBZMlQIAAAQIECBAgQGBSgbH1Sd2+CjLEE686oLGvk6rrnAABAgQIECBAgACBkxIYW5/U7Su0UIXX0Cw2JzS0D+0IECBAgAABAgQIECDQFBhbZzTbK7yasn4mQIAAAQIECBAgQIDARqBZOA1BabZXeA0R1IYAAQIECBAgQIAAgcULNAunIZNttld4DRHUhgABAgQIECBAgACBxQs0C6chk222V3gNEdSGAAECBAgQIECAAIHFCzQLpyGTbbZXeA0R1IYAAQIECBAgQIAAgcULNAunIZNttld4DRHUhgABAgQIECBAgACBxQs0C6chk222V3gNEdSGAAECBAgQIECAAIHFCzQLpyGTbbZXeA0R1IYAAQIECBAgQIAAgcULNAunIZNttld4DRHUhgABAgQIECBAgACBxQs0C6chk222V3gNEdSGAAECBAgQIECAAIHFCzQLpyGTbbZXeA0R1IYAAQIECBAgQIAAgcULNAunIZNttld4DRHUhgABAgQIECBAgACBxQs0C6chk222V3gNEdSGAAECBAgQIECAAIHFCzQLpyGTbbZXeA0R1IYAAQIECBAgQIAAgcULNAunIZNtth9YeP1devHLv5rqji5e35n+xTd/nFKqzn0y/ev/vn9odT/7t7h65dj2V3vzjgABAgQIECBAgACBMgXi1ikjCq9WcfW//n166p/86/TfFV5lrlFREyBAgAABAgQIECheoOMhUJA6ZeLC63+lf//UavNk7J/sfAo29onV2PbFry8TIECAAAECBAgQIECg+9N3nYXX/HXKiMKr/VHDurC6rDL/179/Kr3zX3wzrT+A+OKX09nm5/aaGFs4jW3fjsd7AgQIECBAgAABAgRKFOj6qGGMOmVE4XX5UcOqwPon2y91NQuv/2Pzva+bkza2cBrb/ubonCVAgAABAgQIECBAoAyBy1qkijdSnZKl8Lr4hRpn1365xpWJbh/xXU/Z2MJpbPvrETlCgAABAgQIECBAgEB5AlcLr0h1SqbCq/o45Yvpy79aPcZrTnb+z06WtzhETIAAAQIECBAgQIBAHoFmLbLpMUidMrDwysNS9zL2idXY9nUcXgkQIECAAAECBAgQIFALjK0zmu0VXrWqVwIECBAgQIAAAQIECDQEmoVT4/DePzbbK7z2ZnMhAQIECBAgQIAAAQKnJNAsnIbMu9le4TVEUBsCBAgQIECAAAECBBYv0Cychky22V7hNURQGwIECBAgQIAAAQIEFi/QLJyGTLbZXuE1RFAbAgQIECBAgAABAgQWL9AsnIZMttle4TVEUBsCBAgQIECAAAECBBYv0Cychky22V7hNURQGwIECBAgQIAAAQIEFi/QLJyGTLbZXuE1RFAbAgQIECBAgAABAgQWL9AsnIZMttle4TVEUBsCBAgQIECAAAECBBYv0Cychky22V7hNURQGwIECBAgQIAAAQIEFi/QLJyGTLbZXuE1RFAbAgQIECBAgAABAgQWL9AsnIZMttle4TVEUBsCBAgQIECAAAECBBYv0Cychky22V7hNURQGwIECBAgQIAAAQIEFi/QLJyGTLbZXuE1RFAbAgQIECBAgAABAgQWL9AsnIZMttle4TVEUBsCBAgQIECAAAECBBYv0Cychky22T5U4VUHNvR1CIY2BAgQIECAAAECBAgQ6BIYWpe021V9K7y6hBd17E46X61SO/mr8zuLmqXJECBAgAABAgQIjBH4WfrW5zv2jPd9IX1nTLeFt722h+7aV+9xrGIIUXj15aOecN91p3L+jTfeSM8++2x66KGH0nvf+9709NNPp3v37u2Y/kXhdbXOuptun63S1WM7mjtMgAABAgQIECBwAgIXhdd9X2iWWW+mH3z1w+nqsXEU1T721q1b6ZFHHln/+7nPfe6Gfey4seZofUidovCaIyMZx6gW67vf/e5rT7De/va3p1dffbVjpK7CK6U756t0dvvu+vrq53rRXH0S1nxadp48I+vgdYgAAQIECBAgsAiBrsIrpZ996/PprR/9k/TKmz9IX/3wfenW7a+mD6+f8Lw1ffRPXkkpVe3qnyuI3cVatY99+OGHL/edmydF73rXu3bsY+PD1nvofSJVeO2jFOia6klXneD26yc+8YmOSLsKr8axO+dpdXY7XZRg1ZOws3RRj119Knb39lm6WpR1DOUQAQIECBAgQIBAoQJdhVfj2LrwWqXV5qOHb/7gq+nDb/1oqmqvbXFWzXxToF15cLYRqZ50VfvXD3zgA+mll15K3/ve99ITTzyxPvbpT3+6SLd6P75P8EUVXvXEvDaeUDU+U/oLv/ALHTlvPrW6bFc/7UpXCq9G87u309nKU66GiB8JECBAgAABAgsWuCiy2vvs9dOuatbrgqr5ZOvySVezCFv/vON7YdXHC6v+q6KrHqf6xFb9c8mv+ywMhVejcCk52VXsP/dzP9eR88bTrY6z1aH106yNw5WCTOG1Q8xhAgQIECBAgMDSBBpPt7qmdu1J1mXhdfmUa/fHDKsu3//+96+LrHUBstl7vvbaawqvLm/Hji/wmc98Zufi/OAHP9gRYH/hddmo8fFCT7wuWfxEgAABAgQIEFi8wD6FV+OJ15UnYHXBdSd96/P3pa6PGVZ89Vdm6o8XVg8O6mOPP/744oWLeOK1+CwcMMHqtxc+8MAD14qvt73tbetfUXm9q5sLr6vf3Wp+x+tqu/V12++CXR/FEQIECBAgQIAAgZIF9im8Vhe/aGP9ycPL73hVs15/xLB6irXjY4bVNdU+tvpFGu1Pmd1///079rEle16PXeF13ST8keqzsI899th20VZPuqpEdv9ztYC6fs3FU676D8D2o4bVheunXvX3wnzf67qdIwQIECBAgACBpQjsU3jdl87PP7/Zg7aebK2fgK16f/V8tY996qmntvvY6knX7n3sUmwv5qHwCpzPuhga+xp4ikIjQIAAAQIECBAoQeDad7xuDnrs/rVuf/MoZZ1VeAXOV73gxr4GnqLQCBAgQIAAAQIEShBQeI3OksJrNOF0HdQF19ARxrYfOq52BAgQIECAAAECpy0wdh86tn1EfYVXxKxsYhq74Ma2D0wjNAIECBAgQIAAgcACY/ehY9tHpFF4RczKJqaxC25s+8A0QiNAgAABAgQIEAgsMHYfOrZ9RBqFV8SsbGIau+DGtg9MIzQCBAgQIECAAIHAAmP3oWPbR6RReEXMyiamsQtubPvANEIjQIAAAQIECBAILDB2Hzq2fUQahVfErGxiGrvgxrYPTCM0AgQIECBAgACBwAJj96Fj20ekUXhFzMomprELbmz7wDRCI0CAAAECBAgQCCwwdh86tn1EGoVXxKxsYhq74Ma2D0wjNAIECBAgQIAAgcACY/ehY9tHpFF4RczKJqaxC25s+8A0QiNAgAABAgQIEAgsMHYfOrZ9RBqFV8SsbGIau+DGtg9MIzQCBAgQIECAAIHAAmP3oWPbR6RReEXMyiamsQtubPvANEIjQIAAAQIECBAILDB2Hzq2fUQahVfErGxiGrvgxrYPTCM0AgQIECBAgACBwAJj96Fj20ekUXhFzMomprELbmz7wDRCI0CAAAECBAgQCCwwdh86tn1EGoVXxKxsYhq74Ma2D0wjNAIECBAgQIAAgcACY/ehY9tHpFF4RczKJqaxC25s+8A0QiNAgAABAgQIEAgsMHYfOrZ9RBqF19is/O1fpC/9yirVi2P9+uBvpf90b2zHadvn0J7qmIa2144AAQIECBAgQGDBAvaxsyZX4TWWu1qwT/7b9JeNfn78/CfTI/+2eaRx8oAfxxZOY9sfEKpLCRAgQIAAAQIEShOwj501Ywqvsdw3Ltgfp+c/efk07KIY+9v0F1/6le3TrNUjV4u2ZjhjC6ex7Zux+JkAAQIECBAgQGBhAjftY9fnztN5vZdd71mrfexZ+q36o10/fj59csdeduw+dGz7iJlSeI3NSrUo2x81rBfgj59Pn/2t/5SufOrwb7+f7rxYH6kKs0fSrodjYxfc2PZjabQnQIAAAQIECBAILHDTPnZ9rt6nXhZcf/sXX0pn6/3t5bGuGY7dh45t3xXTsY8pvMZmYP1/A+qnVu1C6urTrfrjh9WC/ZVV/SSsXtDXAxm74Ma2vx6RIwQIECBAgAABAosRuGkfe+VcStX+9cn104Ifp+c/+1vpP939i/Sls92/12DsPnRs+4g5UniNzUprUabqfdcirI9/v/kUrF2oXQ1m7IIb2/5qNN4RIECAAAECBAgsSuCmfWx17lfqBwRXn279+PnPpifPP7t58tUtMnYfOrZ9d1THParwGuvfXrDp4v8I/Er1ccPqc6/bJ1uri1+4sV7El0+7zs8/e/k52VYsYxfc2PatcLwlQIAAAQIECBBYksBN+9j1ucvveD3Y/PrMeo9bF2XdIGP3oWPbd0d13KMKr+P63zj62AU3tv2NwTlJgAABAgQIECCwXIGOouyQyY7dh45tf0isc12r8JpLesA4Yxfc2PYDQtaEAAECBAgQIEBgCQIKr+xZVHhlJ83X4djCaWz7fDPREwECBAgQIECAwCkJjN2Hjm0f0VrhFTErm5jGLrix7QPTCI0AAQIECBAgQCCwwNh96Nj2EWkUXhGzsolp7IIb2z4wjdAIECBAgAABAgQCC4zdh45tH5FG4RUxK5uYxi64se0D0wiNAAECBAgQIEAgsMDYfejY9hFpFF4Rs7KJaeyCG9s+MI3QCBAgQIAAAQIEAguM3YeObR+RRuEVMSubmMYuuLHtA9MIjQABAgQIECBAILDA2H3o2PYRaRReEbOyiWnsghvbPjCN0AgQIECAAAECBAILjN2Hjm0fkUbhFTErm5jGLrix7QPTCI0AAQIECBAgQCCwwNh96Nj2EWkUXhGzsolp7IIb2z4wjdAIECBAgAABAgQCC4zdh45tH5FG4RUxK5uYxi64se0D0wiNAAECBAgQIEAgsMDYfejY9hFpFF4Rs7KJaeyCG9s+MI3QCBAgQIAAAQIEAguM3YeObR+RRuEVMSubmMYuuLHtA9MIjQABAgQIECBAILDA2H3o2PYRaRReEbOyiWnsghvbPjCN0AgQIECAAAECBAILjN2Hjm0fkUbhFTErm5jGLrix7QPTCI0AAQIECBAgQCCwwNh96Nj2EWkUXhGzsompXnBjXwNPUWgECBAgQIAAAQILFBi7f63bL4lG4RU4m/WCG/saeIpCI0CAAAECBAgQWKDA2P1r3X5JNAqvgrO5xAVZcDqEToAAAQIECBAgsKfAKe5jFV57Lo6Il53igo2YBzERIECAAAECBAgcJnCK+1iF12FrJNTVp7hgQyVAMAQIECBAgAABAoMETnEfq/AatFRiNDrFBRtDXhQECBAgQIAAgeMI1Pu/pbweR/E4oyq8juOeZdT6D1yWznRCgAABAgQIECAQXqDe/y3lNTx4xgAVXhkx5+6q/gM397jGI0CAAAECBAgQOI6A/d9x3HOMqvDKoXikPvzBOxK8YQkQIECAAAECRxKw/zsSfIZhFV4ZEI/VhT94x5I3LgECBAgQIEDgOAL2f8dxzzGqwiuH4pH68AfvSPCGJUCAAAECBAgcScD+70jwGYZVeGVAPFYX/uAdS964BAhMI3Anna9Wqb63bV/P70wznF4JECBQoEB9byww9JMPWeFV8BLwB6/g5AmdwIkIvPHGG+nWz1dQ4QAAIABJREFUrVvpkUceWf/7uc99Lt27d2/H7C8Kr6t11t10+2yVrh7b0dxhAgQInICA/V+5SVZ4lZu77f8VLngKQidAYMECVdH18MMPb+9V9WbhXe96V3r11Vc7Zt5VeKV053yVzm7fTenu7XS2Ok+3b59t+jxLt+82npI1qrOqTT3eqnE83Tm/PL5S0HUkwSECBIIL1Pe24GEKr0NA4dWBUsohf/BKyZQ4CZymQPWkq7pPfeADH0gvvfRS+t73vpeeeOKJ9bFPf/rTHShdhVfj2Lrw2hRh6aIgW62q4ittirLNz1VxdXY7VYdTqp6YdVyzbnLWuK4jHIcIECAQUMD+L2BS9gxJ4bUnVMTL6j94Xhv/Z7vr+yGOXfk//NaL9TL3GqiKrnrM6klX9fM73vGOjttq4+lV48/t+mlXdfW68NoUUXXhtH2aVbXtKrw6hqkPXSnQ6oNeCRAgEFugvp/GjlJ0XQIKry6VQo7Vf/C82khbA9ZA5DWw/g/NppB67bXX1oXX/fff33GnbTzd6jhbf9Sw/lUbd6uPHHYVXnVRthlzW7htn5I11sv2yVjXgI4RIEAgnkB9v48XmYj6BBRefULOEyBAgMAggWeffXZdZNUfL6w2C/Wxxx9/vKPPfIXXZeeNX86x/n7XeaoLt/X3vRRel1R+IkCgCAGFVxFp6gxS4dXJ4iABAgQIjBWofnth9Ys06k1C/Vo97ar+43P9nzyF19UnYY3veF0pvC4Kssvvgl2PxhECBAhEFKjvpRFjE9PNAgqvm32cJUCAAIERAtV3up566qlt8VU96eouuqpB8hReF79Q4/LjhJcfNdwUW+uPIJ6l23cufkvi9gnYiHlqSoAAgbkEFF5zSecfR+GV31SPBAgQINASsFFogXhLgACBgQLupwPhAjRTeAVIghAIECCwdAEbhaVn2PwIEJhLwP10Lun84yi88pvqkQABAgRaAjYKLRBvCRAgMFDA/XQgXIBmCq8ASRACAQIEli5go7D0DJsfAQJzCbifziWdfxyFV35TPRIgQIBAS8BGoQXiLQECBAYKuJ8OhAvQTOEVIAlCIECAwNIFbBSWnmHzI0BgLgH307mk84+j8MpvqkcCBAgQaAnYKLRAvCVAgMBAAffTgXABmim8AiRBCAQIEFi6gI3C0jNsfgQIzCXgfjqXdP5xFF75TfVIgAABAi0BG4UWiLcECBAYKOB+OhAuQDOFV4AkCIEAAQJLF7BRWHqGzY8AgbkE3E/nks4/jsIrv6keCRAgQKAlYKPQAvGWAAECAwXcTwfCBWim8AqQBCEQIEBg6QI2CkvPsPkRIDCXgPvpXNL5x1F45TfVIwECBAi0BGwUWiDeEiBAYKCA++lAuADNFF4BkiAEAgQILF3ARmHpGTY/AgTmEnA/nUs6/zgKr/ymeiRAgACBloCNQgvEWwIECAwUcD8dCBegmcIrQBKEQIAAgaUL2CgsPcPmR4DAXALup3NJ5x9H4ZXfVI8ECBAg0BKwUWiBeEuAAIGBAu6nA+ECNFN4BUiCEAgQILB0ARuFpWfY/AgQmEvA/XQu6fzjKLzym+qRAAECBFoCNgotEG8JECAwUMD9dCBcgGYKrwBJEAIBAgSWLmCjsPQMmx8BAnMJuJ/OJZ1/HIVXflM9EiBAgEBLwEahBeItAQIEBgq4nw6EC9BM4RUgCUIgQIDA0gVsFJaeYfMjQGAuAffTuaTzj6Pwym+qRwIECBBoCdgotEC8JUCAwEAB99OBcAGaKbwCJEEIBAgQWLqAjcLSM2x+BAjMJeB+Opd0/nEUXvlN9UiAAAECLQEbhRaItwQIEBgo4H46EC5AM4VXgCQIgQABAksXsFFYeobNjwCBuQTcT+eSzj+Owiu/qR4JECBAoCVgo9AC8ZYAAQIDBdxPB8IFaKbwCpAEIRAgQGDpAjYKS8+w+REgMJeA++lc0vnHUXjlN9UjAQIECLQEbBRaIN4SIEBgoID76UC4AM0UXgGSIAQCBAgsXcBGYekZNj8CBOYScD+dSzr/OAqv/KZ6JECAAIGWgI1CC8RbAgQIDBRwPx0IF6CZwitAEoRAgACBpQvYKCw9w+ZHgMBcAu6nc0nnH0fhld9UjwQIECDQErBRaIF4S4AAgYEC7qcD4QI0U3gFSIIQCBAgsHQBG4WlZ9j8CBCYS8D9dC7p/OMovPKb6pEAAQIEWgI2Ci0QbwkQIDBQwP10IFyAZgqvAEkQAgECBJYuYKOw9AybHwECcwm4n84lnX8chVd+Uz0SIECAQEvARqEF4i0BAgQGCrifDoQL0EzhFSAJQiBAgMDSBWwUlp5h8yNAYC4B99O5pPOPo/DKb6pHAgQIEGgJ2Ci0QLwlQIDAQAH304FwAZopvAIkQQgECBBYuoCNwtIzbH4ECMwl4H46l3T+cRRe+U31SIAAAQItARuFFoi3BAgQGCjgfjoQLkAzhVeAJAiBAAECSxewUVh6hs2PAIG5BNxP55LOP47CK7+pHgkQIECgJWCj0ALxlgABAgMF3E8HwgVopvAKkAQhECBAYOkCNgpLz7D5ESAwl4D76VzS+cdReOU31SMBAgQItARsFFog3hIgQGCggPvpQLgAzRReAZIgBAIECCxdwEZh6Rk2PwIE5hJwP51LOv84Cq/8pnokQIAAgZaAjUILxFsCBAgMFHA/HQgXoJnCK0AShECAAIGlC9goLD3D5keAwFwC7qdzSecfR+GV31SPBAgQINASsFFogXhLgACBgQLupwPhAjRTeAVIghAIECCwdAEbhaVn2PwIEJhLwP10Lun84yi88pvqkQABAgRaAjYKLRBvCRAgMFDA/XQgXIBmCq8ASRACAQIEli5go7D0DJsfAQJzCbifziWdfxyFV35TPRIgQIBAS8BGoQXiLQECBAYKuJ8OhAvQTOEVIAlCIECAwNIFbBSWnmHzI0BgLgH307mk84+j8MpvqkcCBAgQaAnYKLRAvCVAgMBAAffTgXABmim8AiRBCAQIEFi6gI3C0jNsfgQIzCXgfjqXdP5xFF75TfVIgAABAi0BG4UWiLcECBAYKOB+OhAuQDOFV4AkCIEAAQJLF7BRWHqGzY8AgbkE3E/nks4/jsIrv6keCRAgQKAlYKPQAvGWAAECAwXcTwfCBWim8AqQBCEQIEBg6QI2CkvPsPkRIDCXgPvpXNL5x1F45TfVIwECBAi0BGwUWiDeEiBAYKCA++lAuADNFF4BkiAEAgQILF3ARmHpGTY/AgTmEnA/nUs6/zgKr/ymeiRAgACBloCNQgvEWwIECAwUcD8dCBegmcIrQBKEQIAAgaUL2CgsPcPmR4DAXALup3NJ5x9H4ZXfVI8ECBAg0BKwUWiBeEuAAIGBAu6nA+ECNFN4BUiCEAgQILB0ARuFpWfY/AgQmEvA/XQu6fzjKLzym+qRAAECBFoCNgotEG8JECAwUMD9dCBcgGYKrwBJEAIBAgSWLmCjsPQMmx8BAnMJuJ/OJZ1/HIVXflM9EiBAgEBLwEahBeItAQIEBgq4nw6EC9BM4RUgCUIgQIDA0gVsFJaeYfMjQGAuAffTuaTzj6Pwym+qRwIECBBoCdgotEC8JUCAwEAB99OBcAGaKbwCJEEIBAgQWLqAjcLSM2x+BAjMJeB+Opd0/nEUXvlN9UiAAAECLQEbhRaItwQIEBgo4H46EC5AM4VXgCQIgQABAksXsFFYeobNjwCBuQTcT+eSzj+Owiu/qR4JECBAoCVgo9AC8ZYAAQIDBdxPB8IFaKbwCpAEIRAgQGDpAjYKS8+w+REgMJeA++lc0vnHUXjlN9UjAQIECLQEbBRaIN4SIEBgoID76UC4AM0UXgGSIAQCBAgsXcBGYekZNj8CBOYScD+dSzr/OAqv/KZ6JECAAIGWgI1CC8RbAgQIDBRwPx0IF6CZwitAEoRAgACBpQvYKCw9w+ZHgMBcAu6nc0nnH0fhld9UjwQIECDQErBRaIF4S4AAgYEC7qcD4QI0U3gFSIIQCBAgsHQBG4WlZ9j8CBCYS8D9dC7p/OMovPKb6pEAAQIEWgI2Ci0QbwkQIDBQwP10IFyAZgqvAEkQAgECBJYuYKOw9AybHwECcwm4n84lnX8chVd+Uz0SIECAQEvARqEF4i0BAgQGCrifDoQL0EzhFSAJQiBAgMDSBWwUlp5h8yNAYC4B99O5pPOPo/DKb6pHAgQIEGgJ2Ci0QLwlQIDAQAH304FwAZopvAIkQQgECBBYuoCNwtIzbH4ECMwl4H46l3T+cRRe+U31SIAAAQItARuFFoi3BAgQGCjgfjoQLkAzhVeAJAiBAAECSxewUVh6hs2PAIG5BNxP55LOP47CK7+pHgkQIECgJWCj0ALxlgABAgMF3E8HwgVopvAKkAQhECBAYOkCNgpLz7D5ESAwl4D76VzS+cdReOU31SMBAgQItARsFFog3hIgQGCggPvpQLgAzRReAZIgBAIECCxdwEZh6Rk2PwIE5hJwP51LOv84Cq/8pnokQIAAgZaAjUILxFsCBAgMFHA/HQgXoJnCK0AShECAAIGlC9goLD3D5keAwFwC7qdzSecfR+GV31SPBAgQINASsFFogXhLgACBgQLupwPhAjRTeAVIghAIECCwdAEbhaVn2PwIEJhLwP10Lun84yi88pvqkQABAgRaAjYKLRBvCRAgMFDA/XQgXIBmCq8ASRACAQIEli5go7D0DJsfAQJzCbifziWdfxyFV35TPRIgQIBAS8BGoQXiLQECBAYKuJ8OhAvQTOEVIAlCIECAwNIFbBSWnmHzI0BgLgH307mk84+j8MpvqkcCBAgQaAnYKLRAvCVAgMBAAffTgXABmim8AiRBCAQIEFi6gI3C0jNsfgQIzCXgfjqXdP5xFF75TfVIgAABAi0BG4UWiLcECBAYKOB+OhAuQDOFV4AkCIEAAQJLF7BRWHqGzY8AgbkE3E/nks4/jsIrv6keCRAgQKAlYKPQAvGWAAECAwXcTwfCBWim8AqQBCEQIEBg6QI2CkvPsPkRIDCXgPvpXNL5x1F45TfVIwECBAi0BGwUWiDeEiBAYKCA++lAuADNFF4BkiAEAgQILF3ARmHpGTY/AgTmEnA/nUs6/zgKr/ymeiRAgACBloCNQgvEWwIECAwUcD8dCBegmcIrQBKEQIAAgaUL2CgsPcPmR4DAXALup3NJ5x9H4ZXfVI8ECBAg0BKwUWiBeEuAAIGBAu6nA+ECNFN4BUiCEAgQILB0ARuFpWfY/AgQmEvA/XQu6fzjKLzym+qRAAECBFoCNgotEG8JECAwUMD9dCBcgGYKrwBJEAIBAgSWLmCjsPQMmx8BAnMJuJ/OJZ1/HIVXflM9EiBAgEBLwEahBeItAQIEBgq4nw6EC9BM4RUgCUIgQIDA0gVsFJaeYfMjQGAuAffTuaTzj6Pwym+qRwIECBBoCdgotEC8JUCAwEAB99OBcAGaKbwCJEEIBAgQWLqAjcLSM1zO/N789nmq1+Pl61vS7965mMPdr52lt9RvypmWSE9IoF63JzTlxUxV4bWYVJoIAQIE4grYKMTNzalFti683vK7aVNnXUz/7tfS2eaYwuvUVkR583U/LS9ndcQKr1rCKwECBAhMJmCjMBmtjg8U6Cy83vx2Ol99JP3x3ZTqwmt93Uf+ON2t+28UZ/UhrwSOIeB+egz1PGMqvPI46oUAAQIEbhCwUbgBx6lZBboKr+axuvBKjWKsCnB7fNZoDUbguoD76XWTUo4ovErJlDgJECBQsICNQsHJW1jo6yJrtWp9z+viaVc11csC62762tkqfaR6DJaqny+/B7YwEtMpTMD9tLCENcJVeDUw/EiAAAEC0wjYKEzjqtfDBZpPt7paXxZejSLMxwy7qBw7koD76ZHgMwyr8MqAqAsCBAgQuFnARuFmH2fnEzik8Ep1wfXtc7/pcL4UGalHwP20ByjwaYVX4OQIjQABAksRsFFYSibLn8dBhdf6I4bVxxJ9zLD8zC9nBu6n5eZS4VVu7kROgACBYgRsFIpJ1eIDPazwuvi44ar96+cXr2SCkQXcTyNn5+bYFF43+zhLgAABAhkEbBQyIOqCAAECKW1/MQyM8gQUXuXlTMQECBAoTkDhVVzKBEyAQFAB99OgidkjLIXXHkguIUCAAIFxAjYK4/y0JkCAQC3gflpLlPeq8CovZyImQIBAcQI2CsWlTMAECAwU+Nm3Pr/9OGB971ut7ktf/E7V4ZvpB1/9ULrv4s2gEeo+BzXW6KgCCq+j8hucAAECpyFgo3AaeS51lm+88UZ69tln00MPPZTe+973pqeffjrdu3ev1OmI+8gC68Lrvi+mdZ21ieXNH3w1fWh9bHjhVa/T+n5qnR450QOGV3gNQNOEAAECBA4TqDcKh7VyNYHpBarN7Lvf/e5rTyje/va3p1dffXX6AIywOIGuwiv97Fvp82/9WPr6K63Cqzq+qv7Kgot/dz0Js06XsUwUXsvIo1kQIEAgtEC9qQgdpOBOUqB60lWvz/brJz7xiZM0MelxAl2F1+WxRuH15g/SVz/01vSxr7+yHnD9VGxdnF0f3zq9blLiEYVXiVkTMwECBAoTqDe0hYUt3OAC9bqK/hqcUXiZBdZFVuMp1np9bguqRuHVHnf7VKx9Iq0/Bjt0nV/vzZFjCSi8jiVvXAIECJyQQL1hOKEpm+oMAvW6iv46A4UhAglcPt3qCupq4XWtSNsWaFfb/vIv//LOJ7N96/9qT94dU0DhdUx9YxMgQOBEBOqNwYlM1zRnEsixrj7zmc/s3NB+8IMfHDWTHPGNCkDjowjsXXitv99V/7bDlC6/B3Y97CnX6fXRHJlKQOE1lax+CRAgQGArYAO6pfBDRoEc66r67YUPPPDAteLrbW97W6o2SWP+yRHfmPG1PY7AsMLr4knYascTrynX6XGUTnNUhddp5t2sCRAgMKuADeis3CczWK51Vf32wscee2xbfFVPusYWXVUScsV3MgldyET3Lrw2f6fXxTp5a/rYH387ffVDjSdgLY+p1mlrGG8nFFB4TYirawIECBC4ELABtRKmEMi9rqL3N4WhPssTyL1OyxMoN2KFV7m5EzkBAgSKEbBRKCZVRQWae11F76+o5Ah2MoHc63SyQHV8TUDhdY3EAQIECBDILWCjkFtUf5VA7nUVvT9ZJzDFuqc6n4DCaz5rIxEgQOBkBXJvaE8W0sSvCOReV9H7uzJ5b05WIPc6PVnII0xc4XUEdEMSIEDg1ARsFE4t4/PMN/e6it7fPKpGiS6Qe51Gn++S4lN4LSmb5kKAAIGgAjYKQRNTeFi511X0/gpPl/AzCeRep5nC0s0eAgqvPZBcQoAAAQLjBGwUxvlp3S2Qe11F769bwdFTE8i9Tk/N75jzVXgdU9/YBAgQOBEBG4UTSfTM04y+rqLHN3O6DJdJwLrKBHmEbhReR0A3JAECBE5NwEbh1DI+z3yjr6vo8c2TJaPkFrCucovO15/Caz5rIxEgQOBkBWwUTjb1k048+rqKHt+kydH5ZALW1WS0k3es8Jqc2AAECBAgYKNgDUwhEH1dRY9vipzoc3oB62p646lGUHhNJatfAgQIENgK2ChsKfyQUSD6uooeX8ZU6GpGAetqRuzMQym8MoPqjgABAgSuC9goXDdxZLxA9HUVPb7xGdDDMQSsq2Oo5xlT4ZXHUS8ECBAgcIOAjcINOE4NFoi+rqLHNxhew6MKWFdH5R81uMJrFJ/GBAgQILCPgI3CPkquOVQg+rqKHt+h3q6PIWBdxcjDkCgUXkPUtCFAgACBgwRsFA7icvGeAtHXVfT49mR2WTAB6ypYQg4IR+F1AJZLCRAgQGCYgI3CMDetbhaIvq6ix3ezrrNRBayrqJnpj0vh1W/kCgIECBAYKWCjMBJQ806B6OsqenydqA6GF7CuwqdoZ4AKr500ThAgQIBALgEbhVyS+mkKRF9X0eNrWvq5HAHrqpxctSNVeLVFvCdAgACB7AI2CtlJdZhSir6uosdnEZUpYF2VmbcqaoVXubkTOQECBIoRsFEoJlVFBRp9XUWPr6hkC3YrYF1tKYr7QeFVXMoETIAAgfIEbBTKy1kJEUdfV9HjKyHHYrwuYF1dNynliMKrlEyJkwABAgUL2CgUnLzAoUdfV9HjC5xaod0gYF3dgBP8lMIreIKER4AAgSUI2CgsIYvx5hB9XUWPL15GRbSPgHW1j1LMaxReMfMiKgIECCxKwEZhUekMM5no6yp6fGESKZCDBKyrg7hCXazwCpUOwRAgQGCZAjYKy8zrsWcVfV1Fj+/Y+TP+MAHraphbhFYKrwhZEAMBAgQWLmCjsPAEH2l60ddV9PiOlDbDjhSwrkYCHrG5wuuI+IYmQIDAqQjYKJxKpuedZ/R1FT2+ebNltFwC1lUuyfn7UXjNb25EAgQInJyAjcLJpXyWCUdfV9HjmyVJBskuYF1lJ52tQ4XXbNQGIkCAwOkK2Cicbu6nnHn0dRU9vilzo+/pBKyr6Wyn7lnhNbWw/gkQIEAg2ShYBFMIRF9X0eObIif6nF7AupreeKoRFF5TyeqXAAECBLYCNgpbCj9kFIi+rqLHlzEVuppRwLqaETvzUAqvzKC6I0CAAIHrAjYK100cGS8QfV1Fj298BvRwDAHr6hjqecZUeOVx1AsBAgQI3CBgo3ADjlODBaKvq+jxDYbX8KgC1tVR+UcNrvAaxacxAQIECOwjYKOwj5JrDhWIvq6ix3eot+tjCFhXMfIwJAqF1xA1bQgQIEDgIAEbhYO4XLynQPR1FT2+PZldFkzAugqWkAPCUXgdgOVSAgQIEBgmYKMwzE2rmwWir6vo8d2s62xUAesqamb641J49Ru5ggABAgRGCtgojATUvFMg+rqKHl8nqoPhBayr8CnaGaDCayeNEwQIECCQS8BGIZekfpoC0ddV9Pialn4uR8C6KidX7UgVXm0R7wkQIEAgu4CNQnZSHaYU/i/mtu4t0ykErKspVOfpU+E1j7NRCBAgcNICNgonnf7JJh99XUWPb7LE6HhSAetqUt5JO1d4TcqrcwIECBCoBGwUrIMpBKKvq+jxTZETfU4vYF1NbzzVCAqvqWT1S4AAAQJbARuFLYUfMgpEX1fR48uYCl3NKGBdzYideSiFV2ZQ3REgQIDAdQEbhesmjowXiL6uosc3PgN6OIaAdXUM9TxjKrzyOOqFAAECBG4QsFG4AcepwQLR11X0+AbDa3hUAevqqPyjBld4jeLTmAABAgT2EbBR2EfJNYcKRF9X0eM71Nv1MQSsqxh5GBKFwmuImjYECBAgcJCAjcJBXC7eUyD6uooe357MLgsmYF0FS8gB4Si8DsByKQECBAgME7BRGOam1c0C0ddV9Phu1nU2qoB1FTUz/XEpvPqNXEGAAAECIwVsFEYCat4pEH1dRY+vE9XB8ALWVfgU7QxQ4bWTxgkCBAgQyCVgo5BLUj9NgejrKnp8TUs/lyNgXZWTq3akCq+2iPcECBAgkF3ARiE7qQ4L+Iu5rXvLdAoB62oK1Xn6VHjN42wUAgQInLSAjcJJp3+yyUdfV9HjmywxOp5UwLqalHfSzhVek/LqnAABAgQqARsF62AKgejrKnp8U+REn9MLWFfTG081gsJrKln9EiBAgMBWwEZhS+GHjALR11X0+DKmQlczClhXM2JnHkrhlRlUdwQIECBwXcBG4bqJI+MFoq+r6PGNz4AejiFgXR1DPc+YCq88jnohQIAAgRsEbBRuwHFqsED0dRU9vsHwGh5VwLo6Kv+owRVeo/g0JkCAAIF9BGwU9lFyzaEC0ddV9PgO9XZ9DAHrKkYehkSh8Bqipg0BAgQIHCRgo3AQl4v3FIi+rqLHtyezy4IJWFfBEnJAOAqvA7BcSoAAAQLDBGwUhrlpdbNA9HUVPb6bdZ2NKmBdRc1Mf1wKr34jVxAgQIDASAEbhQ7AHz6fnvzF1fZX7V8YPZO++UZKL3754+m5l/+ho5FDTYHo6yp6fE3LuX7+0QvPpF9atdb9p/40/e/0cnruk3+QXvq7uSIpdxzrqtzcKbzKzZ3ICRAgUIyAjUJHqqrC67e/md7oOKXw6kDpOBR9XUWPr4N08kNV4fXMn/7vjnEUXh0onYesq06WIg4qvIpIkyAJECBQtoCNQkf+eguvu+n5J88un3y9+OX04DPdhVpH7ydxKPq6ih7fMRbJPoXX1adin0qdddoxgg8ypnUVJBEDwlB4DUDThAABAgQOE7BR6PDq+qjhprCqn3j98Pkn09lzL6d/SD+8WoR1dHeKh6Kvq+jxHWPNXC2qLj5y+Kl1ZVU/8fpR+os7/y3Vnzh8+bmH08X5Y0Qbc0zrKmZe9olK4bWPkmsIECBAYJSAjUIHX+8Tr+o7Xi+mL3/8ufTy3efTk2fPJV/7uuoYfV1Fj++q5jzv9nnilX70Qnrmly6/B6bwupob6+qqR0nvFF4lZUusBAgQKFTARqEjcXsVXhe/aOO3zz++efLV0c8JH4q+rqLHd4yl01941U++LqLzxOt6lqyr6yalHFF4lZIpcRIgQKBgARuFjuR1fdRw9ej6O131Rw3Xrarvdq0uftthRy/zHuqKufXxyDkDir6uosc3Z67qsbo+arj61eq3GdYF14/SC8/80va3fX7q/Dx98g9e2n70sO7nuK+vpT+/9d5tjBd5fih98f/+m5RSde4307/7n9NFaF1NZzt1zwqvqYX1T4AAAQLbDQqKwgWuPaW7/O7ZlWJxpmlG34BGj2+mNC1wmI7i6n/8Sfr1x/5d+p8KrwXmO9+UFF75LPVEgAABAjsEbEB3wJR2uLfwmvc3MUZfV9HjK235xYl3z8LrtT9Pt957+V21xzI9BrOu4qyEQyNReB0q5noCBAgQOFjARuFgspgNOj5q+Oj6ty5e/qXPc/4mxujrKnp8MRdZCVF1fdTwsc3HCy+Lstf+y530verTh9WFayV6AAAJDklEQVQ/2ydim/cjXqyrEXhHbqrwOnICDE+AAIFTELBRWEiWrz3xupzX5UcN5/tNjNHXVfT4LrPnp8MELourqt3/+JNfT5dPs5rnWgXa+qOIh43UdbV11aVSxjGFVxl5EiUBAgSKFrBRKDp9l8HvVXjN95sYo6+r6PFdJtZPhwk0i6uqZfX+7Nov1/gff/KZzTFPvA7zXe7VCq/l5tbMCBAgEEbABnR3Kvps+s7v7nmCM3sWXmmm38QYyqaDO3p8HSHPdqjPpu/8bIF2DtQuvKraq/o+V/Vxw8tzr/35rfTe1eY7Xo+dp/PPfDGtf/FhZ5/7H4xts/88TvFKhdcpZt2cCRAgMLOAjcJu8D6bvvO7e17+meg20eM75grps+k7f8zYjz02m2NnYPj4Cq/hdloSIECAwJ4CNgq7ofps+s7v7nn5Z6LbRI/vmCukz6bv/DFjP/bYbI6dgeHjK7yG22lJgAABAnsK2Cjshuqz6Tu/u+fln4luEz2+Y66QPpu+88eM/dhjszl2BoaPr/AabqclAQIECOwpYKOwG6rPpu/87p6Xfya6TfT4jrlC+mz6zh8z9mOPzebYGRg+vsJruJ2WBAgQILCngI3Cbqg+m77zu3te/pnoNtHjO+YK6bPpO3/M2I89NptjZ2D4+Aqv4XZaEiBAgMCeArk2CkP7+e53v5t+4zd+I/3zf/7P94x4vsv65tR3fkikdZ/RX/vmVsffd92xzueKb2g/1n1/5mvb6K/NmdSxNo/5uQwBhVcZeRIlAQIEihbItVE4tJ/vf//76Yknnkh1u+o12j91bLvi6ju/q91Nx+s+o7/eNIfqXB1/33XHOp8rvkP7se73z3htG/21OaM61uYxP5choPAqI0+iJECAQNECuTYK+/bzyiuvpGeeeWa7MX/HO96x/TkaZN+c+s4Pmc8UfQ6JY1ebfePb97pd40x9PFd8+/Zj3R+e0X1tD+85T4uu+LqO5RlNL1MLKLymFtY/AQIECGQrevo2HPfu3Uu3bt1K991333rMn//5n0+/93u/l6rjfW2Plaa+uPrOD4l7ij6HxLGrzb7x7XvdrnGmPp4rvr5+rPvhmeyzHd5znpZd8XUdyzOaXqYWUHhNLax/AgQIEMhW9OzacLz44ovpi1/8YnrwwQfXY73vfe9Lv//7v59efvnlrf6uttsLjvRDX1x954eEPUWfQ+LY1Wbf+Pa9btc4Ux/PFd+ufqz78RncZTu+5zw9dMXXdSzPaHqZWkDhNbWw/gkQIEBgssKrKqyqAqsqtKrNSFV4VQVYtSFt/xN1s9IXV9/59jz3eT9Fn/uMu+81+8a373X7jpv7ulzxtfux7vNlqm2br+c8PXXF13Usz2h6mVpA4TW1sP4JECBAIHvh9dOf/jR94xvfSO95z3u2fVe/tbD6LW67/om6WemLq+/8rvnedHyKPm8a79Bz+8a373WHjp/r+lzx1f1Y97kyc9lPbXt5JNZPXfF1HYsVtWh2CSi8dsk4ToAAAQLZBHJtFOp+Hn744W3B9eijj6YXXnihN9a6be+FM1/QF1ff+SHhTtHnkDh2tdk3vn2v2zXO1MdzxVf3Y93nz1htm7/nPD12xdd1LM9oeplaQOE1tbD+CRAgQGBbJNUbBq+raya7lsmUVrvGPPbxQ+d87Hh3jX/oPE7x+ih2u+I49vGb1sSxYzP+4QIKr8PNtCBAgACBAwVu2jw4d1GE7SKd0mfXmMc+fuicjx3vrvEPnccpXh/Fblccxz5+05o4dmzGP1xA4XW4mRYECBAgcCSBehPyzne+c/vE6KmnnkrVXxjb90/dtu+6uc/3xdV3fki8U/Q5JI5dbaLHtyvuqY7XHtZ9fuHaNn/PeXqMHl+eWZ5OLwqv08m1mRIgQKB4gXoT8vrrr6c//MM/TPfff/+2AHv22WdT9RfI7vqnbrvr/LGO98XVd35I3FP0OSSOXW2ix7cr7qmO1x7WfX7h2jZ/z3l6jB5fnlmeTi8Kr9PJtZkSIECgeIH2JsSv1R6W0rbjsF6maxU9vulm3t1z28O673YacrRtO6SPKdtEj2/KuS+xb4XXErNqTgQIEFiowK5NiL9I9rCE73I8rJfpro4e33Qz7+55l4d13+11yNFdtof0MeW10eObcu5L7FvhtcSsmhMBAgQWKtC3Cam+61V956u+rvpOzFe+8pX0k5/8ZHssGk0d6664+s7vanfT8Sn6vGm8Q89Fj+/Q+Yy9vs/Duh8u3Gc7vOc8LaPHl2eWp9OLwut0cm2mBAgQKF5g301I9Rcpf+xjH9sWW+973/u2P0dD6JtT3/kh85mizyFx7GoTPb5dcU91fF8P6/7wDOxre3jPeVpEjy/PLE+nF4XX6eTaTAkQIFC8wKGbkOovVn7kkUe2RVfVPto/fXPqOz9kPnWf0V+HzG2Jbeo87Ts3635fqXTl3lA7R3zdf0aujCyg8IqcHbERIECAwBWBekN05WDPm5/+9KfpG9/4Rnr00UfT448/3nP1/Kf75tR3fkjEdZ/RX4fMbYlt6jwdMjfrfj+t2jb6636zcVV0AYVX9AyJjwABAgQWLVBv+HZNsu/8rnaOE4gs0Leu+85HnpvYCOwSUHjtknGcAAECBAjMINC3wew7P0OIhiCQXaBvXfedzx6QDgnMIKDwmgHZEAQIECBAYJdA3waz7/yufh0nEFmgb133nY88N7ER2CWg8Nol4zgBAgQIEJhBoG+D2Xd+hhANQSC7QN+67jufPSAdEphBQOE1A7IhCBAgQIDALoG+DWbf+V39Ok4gskDfuu47H3luYiOwS0DhtUvGcQIECBAgMINA3waz7/wMIRqCQHaBvnXddz57QDokMIOAwmsGZEMQIECAAAECBAgQIHDaAgqv086/2RMgQIAAAQIECBAgMIOAwmsGZEMQIECAAAECBAgQIHDaAgqv086/2RMgQIAAAQIECBAgMIOAwmsGZEMQIECAAAECBAgQIHDaAgqv086/2RMgQIAAAQIECBAgMIOAwmsGZEMQIECAAAECBAgQIHDaAgqv086/2RMgQIAAAQIECBAgMIOAwmsGZEMQIECAAAECBAgQIHDaAlXh9f8D9rHAgnM/7LIAAAAASUVORK5CYII=;rotation=-90;" vertex="1" parent="1">
          <mxGeometry x="70" y="250" width="862" height="595" as="geometry" />
        </mxCell>
      </root>
    </mxGraphModel>
  </diagram>
</mxfile>
